<mxfile host="app.diagrams.net" modified="2025-06-12T09:30:00.000Z" agent="5.0" etag="flow456" version="21.6.5">
  <diagram name="Scaling-Flow-AWS" id="scaling-flow">
    <mxGraphModel dx="1422" dy="794" grid="1" gridSize="10" guides="1" tooltips="1" connect="1" arrows="1" fold="1" page="1" pageScale="1" pageWidth="1400" pageHeight="900" math="0" shadow="0">
      <root>
        <mxCell id="0"/>
        <mxCell id="1" parent="0"/>
        
        <!-- Title -->
        <mxCell id="title" value="ECS Fargate 고속 스케일링 프로세스 흐름도" style="text;html=1;strokeColor=none;fillColor=none;align=center;verticalAlign=middle;whiteSpace=wrap;rounded=0;fontSize=24;fontStyle=1;fontColor=#000000;" vertex="1" parent="1">
          <mxGeometry x="400" y="20" width="600" height="40" as="geometry"/>
        </mxCell>
        
        <!-- Subtitle -->
        <mxCell id="subtitle" value="10초 이내 빠른 스케일링을 위한 8단계 프로세스" style="text;html=1;strokeColor=none;fillColor=none;align=center;verticalAlign=middle;whiteSpace=wrap;rounded=0;fontSize=16;fontColor=#666666;" vertex="1" parent="1">
          <mxGeometry x="450" y="65" width="500" height="25" as="geometry"/>
        </mxCell>
        
        <!-- Timeline Header -->
        <mxCell id="timeline-header" value="⏱️ 타임라인: 0초 → 10초 완성" style="text;html=1;strokeColor=#d6b656;fillColor=#fff2cc;align=center;verticalAlign=middle;whiteSpace=wrap;rounded=1;fontSize=16;fontStyle=1;" vertex="1" parent="1">
          <mxGeometry x="500" y="110" width="400" height="35" as="geometry"/>
        </mxCell>
        
        <!-- Step 1: Traffic Spike -->
        <mxCell id="step1-group" value="" style="group" vertex="1" connectable="0" parent="1">
          <mxGeometry x="80" y="180" width="280" height="120" as="geometry"/>
        </mxCell>
        
        <mxCell id="step1-box" value="" style="rounded=1;whiteSpace=wrap;html=1;fillColor=#ffcccc;strokeColor=#d74894;strokeWidth=3;" vertex="1" parent="step1-group">
          <mxGeometry x="0" y="0" width="280" height="120" as="geometry"/>
        </mxCell>
        
        <mxCell id="step1-icon" value="" style="image;sketch=0;aspect=fixed;html=1;points=[];align=center;fontSize=12;shape=mxgraph.aws4.users;" vertex="1" parent="step1-group">
          <mxGeometry x="20" y="20" width="50" height="50" as="geometry"/>
        </mxCell>
        
        <mxCell id="step1-title" value="1️⃣ 트래픽 급증" style="text;html=1;strokeColor=none;fillColor=none;align=left;verticalAlign=top;whiteSpace=wrap;rounded=0;fontSize=14;fontStyle=1;fontColor=#000000;" vertex="1" parent="step1-group">
          <mxGeometry x="80" y="15" width="150" height="25" as="geometry"/>
        </mxCell>
        
        <mxCell id="step1-desc" value="📊 RPS: 50 → 200&lt;br&gt;⏱️ Latency: 100ms → 800ms&lt;br&gt;🔌 Connections: 500 → 1500&lt;br&gt;🚨 사용자 불만 증가" style="text;html=1;strokeColor=none;fillColor=none;align=left;verticalAlign=top;whiteSpace=wrap;rounded=0;fontSize=11;fontColor=#d74894;" vertex="1" parent="step1-group">
          <mxGeometry x="80" y="40" width="180" height="70" as="geometry"/>
        </mxCell>
        
        <mxCell id="step1-time" value="0초" style="text;html=1;strokeColor=none;fillColor=none;align=center;verticalAlign=middle;whiteSpace=wrap;rounded=0;fontSize=16;fontStyle=1;fontColor=#d74894;" vertex="1" parent="step1-group">
          <mxGeometry x="20" y="85" width="50" height="25" as="geometry"/>
        </mxCell>
        
        <!-- Step 2: Metrics Collection -->
        <mxCell id="step2-group" value="" style="group" vertex="1" connectable="0" parent="1">
          <mxGeometry x="400" y="180" width="280" height="120" as="geometry"/>
        </mxCell>
        
        <mxCell id="step2-box" value="" style="rounded=1;whiteSpace=wrap;html=1;fillColor=#e1d5e7;strokeColor=#9673a6;strokeWidth=3;" vertex="1" parent="step2-group">
          <mxGeometry x="0" y="0" width="280" height="120" as="geometry"/>
        </mxCell>
        
        <mxCell id="step2-icon" value="" style="image;sketch=0;aspect=fixed;html=1;points=[];align=center;fontSize=12;shape=mxgraph.aws4.fargate;" vertex="1" parent="step2-group">
          <mxGeometry x="20" y="15" width="40" height="40" as="geometry"/>
        </mxCell>
        
        <mxCell id="step2-icon2" value="" style="image;sketch=0;aspect=fixed;html=1;points=[];align=center;fontSize=12;shape=mxgraph.aws4.cloudwatch;" vertex="1" parent="step2-group">
          <mxGeometry x="20" y="65" width="40" height="40" as="geometry"/>
        </mxCell>
        
        <mxCell id="step2-title" value="2️⃣ 메트릭 수집" style="text;html=1;strokeColor=none;fillColor=none;align=left;verticalAlign=top;whiteSpace=wrap;rounded=0;fontSize=14;fontStyle=1;fontColor=#000000;" vertex="1" parent="step2-group">
          <mxGeometry x="80" y="15" width="150" height="25" as="geometry"/>
        </mxCell>
        
        <mxCell id="step2-desc" value="📈 5초 간격 수집&lt;br&gt;🔍 1초 해상도&lt;br&gt;📦 Container Insights&lt;br&gt;☁️ CloudWatch API 호출" style="text;html=1;strokeColor=none;fillColor=none;align=left;verticalAlign=top;whiteSpace=wrap;rounded=0;fontSize=11;fontColor=#9673a6;" vertex="1" parent="step2-group">
          <mxGeometry x="80" y="40" width="180" height="70" as="geometry"/>
        </mxCell>
        
        <mxCell id="step2-time" value="2초" style="text;html=1;strokeColor=none;fillColor=none;align=center;verticalAlign=middle;whiteSpace=wrap;rounded=0;fontSize=16;fontStyle=1;fontColor=#9673a6;" vertex="1" parent="step2-group">
          <mxGeometry x="235" y="85" width="35" height="25" as="geometry"/>
        </mxCell>
        
        <!-- Step 3: Alarm Evaluation -->
        <mxCell id="step3-group" value="" style="group" vertex="1" connectable="0" parent="1">
          <mxGeometry x="720" y="180" width="280" height="120" as="geometry"/>
        </mxCell>
        
        <mxCell id="step3-box" value="" style="rounded=1;whiteSpace=wrap;html=1;fillColor=#ffe6cc;strokeColor=#d79b00;strokeWidth=3;" vertex="1" parent="step3-group">
          <mxGeometry x="0" y="0" width="280" height="120" as="geometry"/>
        </mxCell>
        
        <mxCell id="step3-icon" value="" style="sketch=0;points=[[0,0,0],[0.25,0,0],[0.5,0,0],[0.75,0,0],[1,0,0],[0,1,0],[0.25,1,0],[0.5,1,0],[0.75,1,0],[1,1,0],[0,0.25,0],[0,0.5,0],[0,0.75,0],[1,0.25,0],[1,0.5,0],[1,0.75,0]];outlineConnect=0;fontColor=#232F3E;gradientColor=#F78E04;gradientDirection=north;fillColor=#D05C17;strokeColor=#ffffff;dashed=0;verticalLabelPosition=bottom;verticalAlign=top;align=center;html=1;fontSize=12;fontStyle=0;aspect=fixed;shape=mxgraph.aws4.resourceIcon;resIcon=mxgraph.aws4.cloudwatch_alarm;" vertex="1" parent="step3-group">
          <mxGeometry x="20" y="20" width="50" height="50" as="geometry"/>
        </mxCell>
        
        <mxCell id="step3-title" value="3️⃣ 알람 평가" style="text;html=1;strokeColor=none;fillColor=none;align=left;verticalAlign=top;whiteSpace=wrap;rounded=0;fontSize=14;fontStyle=1;fontColor=#000000;" vertex="1" parent="step3-group">
          <mxGeometry x="80" y="15" width="150" height="25" as="geometry"/>
        </mxCell>
        
        <mxCell id="step3-desc" value="🚨 임계치 초과 감지&lt;br&gt;⏰ 10초 평가 주기&lt;br&gt;✅ 알람 상태 변경&lt;br&gt;🔥 다중 메트릭 확인" style="text;html=1;strokeColor=none;fillColor=none;align=left;verticalAlign=top;whiteSpace=wrap;rounded=0;fontSize=11;fontColor=#d79b00;" vertex="1" parent="step3-group">
          <mxGeometry x="80" y="40" width="180" height="70" as="geometry"/>
        </mxCell>
        
        <mxCell id="step3-time" value="5초" style="text;html=1;strokeColor=none;fillColor=none;align=center;verticalAlign=middle;whiteSpace=wrap;rounded=0;fontSize=16;fontStyle=1;fontColor=#d79b00;" vertex="1" parent="step3-group">
          <mxGeometry x="20" y="85" width="50" height="25" as="geometry"/>
        </mxCell>
        
        <!-- Step 4: Auto Scaling Trigger -->
        <mxCell id="step4-group" value="" style="group" vertex="1" connectable="0" parent="1">
          <mxGeometry x="1040" y="180" width="280" height="120" as="geometry"/>
        </mxCell>
        
        <mxCell id="step4-box" value="" style="rounded=1;whiteSpace=wrap;html=1;fillColor=#d5e8d4;strokeColor=#82b366;strokeWidth=3;" vertex="1" parent="step4-group">
          <mxGeometry x="0" y="0" width="280" height="120" as="geometry"/>
        </mxCell>
        
        <mxCell id="step4-icon" value="" style="image;sketch=0;aspect=fixed;html=1;points=[];align=center;fontSize=12;shape=mxgraph.aws4.auto_scaling2;" vertex="1" parent="step4-group">
          <mxGeometry x="20" y="20" width="50" height="50" as="geometry"/>
        </mxCell>
        
        <mxCell id="step4-title" value="4️⃣ 오토스케일링 트리거" style="text;html=1;strokeColor=none;fillColor=none;align=left;verticalAlign=top;whiteSpace=wrap;rounded=0;fontSize=14;fontStyle=1;fontColor=#000000;" vertex="1" parent="step4-group">
          <mxGeometry x="80" y="15" width="180" height="25" as="geometry"/>
        </mxCell>
        
        <mxCell id="step4-desc" value="⚙️ Step Scaling 정책&lt;br&gt;🚀 즉시 스케일아웃&lt;br&gt;📋 스케일링 액션 실행&lt;br&gt;🎯 Target Tracking" style="text;html=1;strokeColor=none;fillColor=none;align=left;verticalAlign=top;whiteSpace=wrap;rounded=0;fontSize=11;fontColor=#82b366;" vertex="1" parent="step4-group">
          <mxGeometry x="80" y="40" width="180" height="70" as="geometry"/>
        </mxCell>
        
        <mxCell id="step4-time" value="6초" style="text;html=1;strokeColor=none;fillColor=none;align=center;verticalAlign=middle;whiteSpace=wrap;rounded=0;fontSize=16;fontStyle=1;fontColor=#82b366;" vertex="1" parent="step4-group">
          <mxGeometry x="235" y="85" width="35" height="25" as="geometry"/>
        </mxCell>
        
        <!-- Step 5: Task Creation -->
        <mxCell id="step5-group" value="" style="group" vertex="1" connectable="0" parent="1">
          <mxGeometry x="80" y="350" width="280" height="120" as="geometry"/>
        </mxCell>
        
        <mxCell id="step5-box" value="" style="rounded=1;whiteSpace=wrap;html=1;fillColor=#fff2cc;strokeColor=#d6b656;strokeWidth=3;" vertex="1" parent="step5-group">
          <mxGeometry x="0" y="0" width="280" height="120" as="geometry"/>
        </mxCell>
        
        <mxCell id="step5-icon" value="" style="image;sketch=0;aspect=fixed;html=1;points=[];align=center;fontSize=12;shape=mxgraph.aws4.ecs;" vertex="1" parent="step5-group">
          <mxGeometry x="20" y="15" width="40" height="40" as="geometry"/>
        </mxCell>
        
        <mxCell id="step5-icon2" value="" style="image;sketch=0;aspect=fixed;html=1;points=[];align=center;fontSize=12;shape=mxgraph.aws4.fargate;" vertex="1" parent="step5-group">
          <mxGeometry x="20" y="65" width="40" height="40" as="geometry"/>
        </mxCell>
        
        <mxCell id="step5-title" value="5️⃣ 새 태스크 생성" style="text;html=1;strokeColor=none;fillColor=none;align=left;verticalAlign=top;whiteSpace=wrap;rounded=0;fontSize=14;fontStyle=1;fontColor=#000000;" vertex="1" parent="step5-group">
          <mxGeometry x="80" y="15" width="150" height="25" as="geometry"/>
        </mxCell>
        
        <mxCell id="step5-desc" value="🐳 ECS 태스크 스케줄링&lt;br&gt;📦 Fargate 컨테이너&lt;br&gt;🔧 256 CPU / 512 MB&lt;br&gt;🚀 컨테이너 이미지 Pull" style="text;html=1;strokeColor=none;fillColor=none;align=left;verticalAlign=top;whiteSpace=wrap;rounded=0;fontSize=11;fontColor=#d6b656;" vertex="1" parent="step5-group">
          <mxGeometry x="80" y="40" width="180" height="70" as="geometry"/>
        </mxCell>
        
        <mxCell id="step5-time" value="7초" style="text;html=1;strokeColor=none;fillColor=none;align=center;verticalAlign=middle;whiteSpace=wrap;rounded=0;fontSize=16;fontStyle=1;fontColor=#d6b656;" vertex="1" parent="step5-group">
          <mxGeometry x="20" y="85" width="50" height="25" as="geometry"/>
        </mxCell>
        
        <!-- Step 6: Health Check -->
        <mxCell id="step6-group" value="" style="group" vertex="1" connectable="0" parent="1">
          <mxGeometry x="400" y="350" width="280" height="120" as="geometry"/>
        </mxCell>
        
        <mxCell id="step6-box" value="" style="rounded=1;whiteSpace=wrap;html=1;fillColor=#f8cecc;strokeColor=#b85450;strokeWidth=3;" vertex="1" parent="step6-group">
          <mxGeometry x="0" y="0" width="280" height="120" as="geometry"/>
        </mxCell>
        
        <mxCell id="step6-icon" value="" style="image;sketch=0;aspect=fixed;html=1;points=[];align=center;fontSize=12;shape=mxgraph.aws4.application_load_balancer;" vertex="1" parent="step6-group">
          <mxGeometry x="20" y="20" width="50" height="50" as="geometry"/>
        </mxCell>
        
        <mxCell id="step6-title" value="6️⃣ 헬스체크" style="text;html=1;strokeColor=none;fillColor=none;align=left;verticalAlign=top;whiteSpace=wrap;rounded=0;fontSize=14;fontStyle=1;fontColor=#000000;" vertex="1" parent="step6-group">
          <mxGeometry x="80" y="15" width="150" height="25" as="geometry"/>
        </mxCell>
        
        <mxCell id="step6-desc" value="⚖️ ALB 타겟 등록&lt;br&gt;🔍 5초 간격 체크&lt;br&gt;✅ 2회 연속 성공&lt;br&gt;🎯 Target Group 업데이트" style="text;html=1;strokeColor=none;fillColor=none;align=left;verticalAlign=top;whiteSpace=wrap;rounded=0;fontSize=11;fontColor=#b85450;" vertex="1" parent="step6-group">
          <mxGeometry x="80" y="40" width="180" height="70" as="geometry"/>
        </mxCell>
        
        <mxCell id="step6-time" value="8초" style="text;html=1;strokeColor=none;fillColor=none;align=center;verticalAlign=middle;whiteSpace=wrap;rounded=0;fontSize=16;fontStyle=1;fontColor=#b85450;" vertex="1" parent="step6-group">
          <mxGeometry x="235" y="85" width="35" height="25" as="geometry"/>
        </mxCell>
        
        <!-- Step 7: Traffic Distribution -->
        <mxCell id="step7-group" value="" style="group" vertex="1" connectable="0" parent="1">
          <mxGeometry x="720" y="350" width="280" height="120" as="geometry"/>
        </mxCell>
        
        <mxCell id="step7-box" value="" style="rounded=1;whiteSpace=wrap;html=1;fillColor=#e1d5e7;strokeColor=#9673a6;strokeWidth=3;" vertex="1" parent="step7-group">
          <mxGeometry x="0" y="0" width="280" height="120" as="geometry"/>
        </mxCell>
        
        <mxCell id="step7-icon" value="" style="image;sketch=0;aspect=fixed;html=1;points=[];align=center;fontSize=12;shape=mxgraph.aws4.application_load_balancer;" vertex="1" parent="step7-group">
          <mxGeometry x="20" y="15" width="40" height="40" as="geometry"/>
        </mxCell>
        
        <mxCell id="step7-icon2" value="" style="image;sketch=0;aspect=fixed;html=1;points=[];align=center;fontSize=12;shape=mxgraph.aws4.fargate;" vertex="1" parent="step7-group">
          <mxGeometry x="20" y="65" width="40" height="40" as="geometry"/>
        </mxCell>
        
        <mxCell id="step7-title" value="7️⃣ 트래픽 분산" style="text;html=1;strokeColor=none;fillColor=none;align=left;verticalAlign=top;whiteSpace=wrap;rounded=0;fontSize=14;fontStyle=1;fontColor=#000000;" vertex="1" parent="step7-group">
          <mxGeometry x="80" y="15" width="150" height="25" as="geometry"/>
        </mxCell>
        
        <mxCell id="step7-desc" value="🔄 로드밸런싱 시작&lt;br&gt;📊 부하 분산&lt;br&gt;⚡ 응답시간 개선&lt;br&gt;📈 처리량 증가" style="text;html=1;strokeColor=none;fillColor=none;align=left;verticalAlign=top;whiteSpace=wrap;rounded=0;fontSize=11;fontColor=#9673a6;" vertex="1" parent="step7-group">
          <mxGeometry x="80" y="40" width="180" height="70" as="geometry"/>
        </mxCell>
        
        <mxCell id="step7-time" value="9초" style="text;html=1;strokeColor=none;fillColor=none;align=center;verticalAlign=middle;whiteSpace=wrap;rounded=0;fontSize=16;fontStyle=1;fontColor=#9673a6;" vertex="1" parent="step7-group">
          <mxGeometry x="20" y="85" width="50" height="25" as="geometry"/>
        </mxCell>
        
        <!-- Step 8: Stabilization -->
        <mxCell id="step8-group" value="" style="group" vertex="1" connectable="0" parent="1">
          <mxGeometry x="1040" y="350" width="280" height="120" as="geometry"/>
        </mxCell>
        
        <mxCell id="step8-box" value="" style="rounded=1;whiteSpace=wrap;html=1;fillColor=#d5e8d4;strokeColor=#82b366;strokeWidth=3;" vertex="1" parent="step8-group">
          <mxGeometry x="0" y="0" width="280" height="120" as="geometry"/>
        </mxCell>
        
        <mxCell id="step8-icon" value="" style="image;sketch=0;aspect=fixed;html=1;points=[];align=center;fontSize=12;shape=mxgraph.aws4.cloudwatch;" vertex="1" parent="step8-group">
          <mxGeometry x="20" y="15" width="40" height="40" as="geometry"/>
        </mxCell>
        
        <mxCell id="step8-icon2" value="✅" style="text;html=1;strokeColor=none;fillColor=none;align=center;verticalAlign=middle;whiteSpace=wrap;rounded=0;fontSize=24;" vertex="1" parent="step8-group">
          <mxGeometry x="20" y="65" width="40" height="30" as="geometry"/>
        </mxCell>
        
        <mxCell id="step8-title" value="8️⃣ 안정화" style="text;html=1;strokeColor=none;fillColor=none;align=left;verticalAlign=top;whiteSpace=wrap;rounded=0;fontSize=14;fontStyle=1;fontColor=#000000;" vertex="1" parent="step8-group">
          <mxGeometry x="80" y="15" width="150" height="25" as="geometry"/>
        </mxCell>
        
        <mxCell id="step8-desc" value="📈 메트릭 정상화&lt;br&gt;⏱️ 응답시간 &lt; 200ms&lt;br&gt;✅ 스케일링 완료&lt;br&gt;🎉 사용자 만족도 회복" style="text;html=1;strokeColor=none;fillColor=none;align=left;verticalAlign=top;whiteSpace=wrap;rounded=0;fontSize=11;fontColor=#82b366;" vertex="1" parent="step8-group">
          <mxGeometry x="80" y="40" width="180" height="70" as="geometry"/>
        </mxCell>
        
        <mxCell id="step8-time" value="10초" style="text;html=1;strokeColor=none;fillColor=none;align=center;verticalAlign=middle;whiteSpace=wrap;rounded=0;fontSize=16;fontStyle=1;fontColor=#82b366;" vertex="1" parent="step8-group">
          <mxGeometry x="235" y="80" width="40" height="25" as="geometry"/>
        </mxCell>
        
        <!-- Flow Arrows -->
        <mxCell id="arrow1" style="edgeStyle=orthogonalEdgeStyle;rounded=0;orthogonalLoop=1;jettySize=auto;html=1;strokeWidth=4;strokeColor=#d74894;endArrow=blockThin;endFill=1;" edge="1" parent="1" source="step1-group" target="step2-group">
          <mxGeometry relative="1" as="geometry"/>
        </mxCell>
        
        <mxCell id="arrow2" style="edgeStyle=orthogonalEdgeStyle;rounded=0;orthogonalLoop=1;jettySize=auto;html=1;strokeWidth=4;strokeColor=#9673a6;endArrow=blockThin;endFill=1;" edge="1" parent="1" source="step2-group" target="step3-group">
          <mxGeometry relative="1" as="geometry"/>
        </mxCell>
        
        <mxCell id="arrow3" style="edgeStyle=orthogonalEdgeStyle;rounded=0;orthogonalLoop=1;jettySize=auto;html=1;strokeWidth=4;strokeColor=#d79b00;endArrow=blockThin;endFill=1;" edge="1" parent="1" source="step3-group" target="step4-group">
          <mxGeometry relative="1" as="geometry"/>
        </mxCell>
        
        <mxCell id="arrow4" style="edgeStyle=orthogonalEdgeStyle;rounded=0;orthogonalLoop=1;jettySize=auto;html=1;strokeWidth=4;strokeColor=#82b366;endArrow=blockThin;endFill=1;" edge="1" parent="1" source="step4-group" target="step5-group">
          <mxGeometry relative="1" as="geometry">
            <Array as="points">
              <mxPoint x="1180" y="320"/>
              <mxPoint x="1350" y="320"/>
              <mxPoint x="1350" y="410"/>
              <mxPoint x="220" y="410"/>
            </Array>
          </mxGeometry>
        </mxCell>
        
        <mxCell id="arrow5" style="edgeStyle=orthogonalEdgeStyle;rounded=0;orthogonalLoop=1;jettySize=auto;html=1;strokeWidth=4;strokeColor=#d6b656;endArrow=blockThin;endFill=1;" edge="1" parent="1" source="step5-group" target="step6-group">
          <mxGeometry relative="1" as="geometry"/>
        </mxCell>
        
        <mxCell id="arrow6" style="edgeStyle=orthogonalEdgeStyle;rounded=0;orthogonalLoop=1;jettySize=auto;html=1;strokeWidth=4;strokeColor=#b85450;endArrow=blockThin;endFill=1;" edge="1" parent="1" source="step6-group" target="step7-group">
          <mxGeometry relative="1" as="geometry"/>
        </mxCell>
        
        <mxCell id="arrow7" style="edgeStyle=orthogonalEdgeStyle;rounded=0;orthogonalLoop=1;jettySize=auto;html=1;strokeWidth=4;strokeColor=#9673a6;endArrow=blockThin;endFill=1;" edge="1" parent="1" source="step7-group" target="step8-group">
          <mxGeometry relative="1" as="geometry"/>
        </mxCell>
        
        <!-- Key Optimizations Section -->
        <mxCell id="optimizations" value="" style="fillColor=#f0f8ff;strokeColor=#4472c4;dashed=1;verticalAlign=top;fontStyle=0;fontColor=#4472c4;whiteSpace=wrap;html=1;strokeWidth=3;fontSize=14;" vertex="1" parent="1">
          <mxGeometry x="80" y="520" width="1240" height="180" as="geometry"/>
        </mxCell>
        
        <mxCell id="opt-title" value="🚀 핵심 최적화 포인트" style="text;html=1;strokeColor=none;fillColor=none;align=left;verticalAlign=top;whiteSpace=wrap;rounded=0;fontSize=16;fontStyle=1;fontColor=#4472c4;" vertex="1" parent="1">
          <mxGeometry x="100" y="530" width="200" height="25" as="geometry"/>
        </mxCell>
        
        <!-- Optimization Items -->
        <mxCell id="opt1-group" value="" style="group" vertex="1" connectable="0" parent="1">
          <mxGeometry x="120" y="570" width="180" height="80" as="geometry"/>
        </mxCell>
        
        <mxCell id="opt1-box" value="" style="rounded=1;whiteSpace=wrap;html=1;fillColor=#e1d5e7;strokeColor=#9673a6;strokeWidth=2;" vertex="1" parent="opt1-group">
          <mxGeometry x="0" y="0" width="180" height="80" as="geometry"/>
        </mxCell>
        
        <mxCell id="opt1-icon" value="" style="image;sketch=0;aspect=fixed;html=1;points=[];align=center;fontSize=12;shape=mxgraph.aws4.cloudwatch;" vertex="1" parent="opt1-group">
          <mxGeometry x="15" y="15" width="30" height="30" as="geometry"/>
        </mxCell>
        
        <mxCell id="opt1-title" value="고해상도 메트릭" style="text;html=1;strokeColor=none;fillColor=none;align=left;verticalAlign=top;whiteSpace=wrap;rounded=0;fontSize=11;fontStyle=1;fontColor=#000000;" vertex="1" parent="opt1-group">
          <mxGeometry x="55" y="15" width="100" height="20" as="geometry"/>
        </mxCell>
        
        <mxCell id="opt1-desc" value="• 1초 해상도&lt;br&gt;• 5초 수집 주기" style="text;html=1;strokeColor=none;fillColor=none;align=left;verticalAlign=top;whiteSpace=wrap;rounded=0;fontSize=9;fontColor=#9673a6;" vertex="1" parent="opt1-group">
          <mxGeometry x="55" y="35" width="100" height="35" as="geometry"/>
        </mxCell>
        
        <mxCell id="opt2-group" value="" style="group" vertex="1" connectable="0" parent="1">
          <mxGeometry x="320" y="570" width="180" height="80" as="geometry"/>
        </mxCell>
        
        <mxCell id="opt2-box" value="" style="rounded=1;whiteSpace=wrap;html=1;fillColor=#d5e8d4;strokeColor=#82b366;strokeWidth=2;" vertex="1" parent="opt2-group">
          <mxGeometry x="0" y="0" width="180" height="80" as="geometry"/>
        </mxCell>
        
        <mxCell id="opt2-icon" value="" style="image;sketch=0;aspect=fixed;html=1;points=[];align=center;fontSize=12;shape=mxgraph.aws4.auto_scaling2;" vertex="1" parent="opt2-group">
          <mxGeometry x="15" y="15" width="30" height="30" as="geometry"/>
        </mxCell>
        
        <mxCell id="opt2-title" value="Step Scaling" style="text;html=1;strokeColor=none;fillColor=none;align=left;verticalAlign=top;whiteSpace=wrap;rounded=0;fontSize=11;fontStyle=1;fontColor=#000000;" vertex="1" parent="opt2-group">
          <mxGeometry x="55" y="15" width="100" height="20" as="geometry"/>
        </mxCell>
        
        <mxCell id="opt2-desc" value="• 즉시 반응&lt;br&gt;• 단계별 확장" style="text;html=1;strokeColor=none;fillColor=none;align=left;verticalAlign=top;whiteSpace=wrap;rounded=0;fontSize=9;fontColor=#82b366;" vertex="1" parent="opt2-group">
          <mxGeometry x="55" y="35" width="100" height="35" as="geometry"/>
        </mxCell>
        
        <mxCell id="opt3-group" value="" style="group" vertex="1" connectable="0" parent="1">
          <mxGeometry x="520" y="570" width="180" height="80" as="geometry"/>
        </mxCell>
        
        <mxCell id="opt3-box" value="" style="rounded=1;whiteSpace=wrap;html=1;fillColor=#f8cecc;strokeColor=#b85450;strokeWidth=2;" vertex="1" parent="opt3-group">
          <mxGeometry x="0" y="0" width="180" height="80" as="geometry"/>
        </mxCell>
        
        <mxCell id="opt3-icon" value="" style="image;sketch=0;aspect=fixed;html=1;points=[];align=center;fontSize=12;shape=mxgraph.aws4.application_load_balancer;" vertex="1" parent="opt3-group">
          <mxGeometry x="15" y="15" width="30" height="30" as="geometry"/>
        </mxCell>
        
        <mxCell id="opt3-title" value="빠른 헬스체크" style="text;html=1;strokeColor=none;fillColor=none;align=left;verticalAlign=top;whiteSpace=wrap;rounded=0;fontSize=11;fontStyle=1;fontColor=#000000;" vertex="1" parent="opt3-group">
          <mxGeometry x="55" y="15" width="100" height="20" as="geometry"/>
        </mxCell>
        
        <mxCell id="opt3-desc" value="• 5초 간격&lt;br&gt;• 2회 임계치" style="text;html=1;strokeColor=none;fillColor=none;align=left;verticalAlign=top;whiteSpace=wrap;rounded=0;fontSize=9;fontColor=#b85450;" vertex="1" parent="opt3-group">
          <mxGeometry x="55" y="35" width="100" height="35" as="geometry"/>
        </mxCell>
        
        <mxCell id="opt4-group" value="" style="group" vertex="1" connectable="0" parent="1">
          <mxGeometry x="720" y="570" width="180" height="80" as="geometry"/>
        </mxCell>
        
        <mxCell id="opt4-box" value="" style="rounded=1;whiteSpace=wrap;html=1;fillColor=#fff2cc;strokeColor=#d6b656;strokeWidth=2;" vertex="1" parent="opt4-group">
          <mxGeometry x="0" y="0" width="180" height="80" as="geometry"/>
        </mxCell>
        
        <mxCell id="opt4-icon" value="" style="image;sketch=0;aspect=fixed;html=1;points=[];align=center;fontSize=12;shape=mxgraph.aws4.fargate;" vertex="1" parent="opt4-group">
          <mxGeometry x="15" y="15" width="30" height="30" as="geometry"/>
        </mxCell>
        
        <mxCell id="opt4-title" value="컨테이너 최적화" style="text;html=1;strokeColor=none;fillColor=none;align=left;verticalAlign=top;whiteSpace=wrap;rounded=0;fontSize=11;fontStyle=1;fontColor=#000000;" vertex="1" parent="opt4-group">
          <mxGeometry x="55" y="15" width="100" height="20" as="geometry"/>
        </mxCell>
        
        <mxCell id="opt4-desc" value="• Fargate 1.4.0&lt;br&gt;• 최소 리소스" style="text;html=1;strokeColor=none;fillColor=none;align=left;verticalAlign=top;whiteSpace=wrap;rounded=0;fontSize=9;fontColor=#d6b656;" vertex="1" parent="opt4-group">
          <mxGeometry x="55" y="35" width="100" height="35" as="geometry"/>
        </mxCell>
        
        <mxCell id="opt5-group" value="" style="group" vertex="1" connectable="0" parent="1">
          <mxGeometry x="920" y="570" width="180" height="80" as="geometry"/>
        </mxCell>
        
        <mxCell id="opt5-box" value="" style="rounded=1;whiteSpace=wrap;html=1;fillColor=#ffe6cc;strokeColor=#d79b00;strokeWidth=2;" vertex="1" parent="opt5-group">
          <mxGeometry x="0" y="0" width="180" height="80" as="geometry"/>
        </mxCell>
        
        <mxCell id="opt5-icon" value="" style="sketch=0;points=[[0,0,0],[0.25,0,0],[0.5,0,0],[0.75,0,0],[1,0,0],[0,1,0],[0.25,1,0],[0.5,1,0],[0.75,1,0],[1,1,0],[0,0.25,0],[0,0.5,0],[0,0.75,0],[1,0.25,0],[1,0.5,0],[1,0.75,0]];outlineConnect=0;fontColor=#232F3E;gradientColor=#F78E04;gradientDirection=north;fillColor=#D05C17;strokeColor=#ffffff;dashed=0;verticalLabelPosition=bottom;verticalAlign=top;align=center;html=1;fontSize=12;fontStyle=0;aspect=fixed;shape=mxgraph.aws4.resourceIcon;resIcon=mxgraph.aws4.cloudwatch_alarm;" vertex="1" parent="opt5-group">
          <mxGeometry x="15" y="15" width="30" height="30" as="geometry"/>
        </mxCell>
        
        <mxCell id="opt5-title" value="다중 알람" style="text;html=1;strokeColor=none;fillColor=none;align=left;verticalAlign=top;whiteSpace=wrap;rounded=0;fontSize=11;fontStyle=1;fontColor=#000000;" vertex="1" parent="opt5-group">
          <mxGeometry x="55" y="15" width="100" height="20" as="geometry"/>
        </mxCell>
        
        <mxCell id="opt5-desc" value="• RPS, Latency&lt;br&gt;• CPU, Memory" style="text;html=1;strokeColor=none;fillColor=none;align=left;verticalAlign=top;whiteSpace=wrap;rounded=0;fontSize=9;fontColor=#d79b00;" vertex="1" parent="opt5-group">
          <mxGeometry x="55" y="35" width="100" height="35" as="geometry"/>
        </mxCell>
        
        <mxCell id="opt6-group" value="" style="group" vertex="1" connectable="0" parent="1">
          <mxGeometry x="1120" y="570" width="180" height="80" as="geometry"/>
        </mxCell>
        
        <mxCell id="opt6-box" value="" style="rounded=1;whiteSpace=wrap;html=1;fillColor=#ffcccc;strokeColor=#d74894;strokeWidth=2;" vertex="1" parent="opt6-group">
          <mxGeometry x="0" y="0" width="180" height="80" as="geometry"/>
        </mxCell>
        
        <mxCell id="opt6-icon" value="" style="image;sketch=0;aspect=fixed;html=1;points=[];align=center;fontSize=12;shape=mxgraph.aws4.cloudwatch_logs;" vertex="1" parent="opt6-group">
          <mxGeometry x="15" y="15" width="30" height="30" as="geometry"/>
        </mxCell>
        
        <mxCell id="opt6-title" value="Insights 통합" style="text;html=1;strokeColor=none;fillColor=none;align=left;verticalAlign=top;whiteSpace=wrap;rounded=0;fontSize=11;fontStyle=1;fontColor=#000000;" vertex="1" parent="opt6-group">
          <mxGeometry x="55" y="15" width="100" height="20" as="geometry"/>
        </mxCell>
        
        <mxCell id="opt6-desc" value="• Container Insights&lt;br&gt;• 실시간 모니터링" style="text;html=1;strokeColor=none;fillColor=none;align=left;verticalAlign=top;whiteSpace=wrap;rounded=0;fontSize=9;fontColor=#d74894;" vertex="1" parent="opt6-group">
          <mxGeometry x="55" y="35" width="120" height="35" as="geometry"/>
        </mxCell>
        
        <!-- Performance Comparison -->
        <mxCell id="comparison" value="" style="fillColor=#ffffcc;strokeColor=#d6b656;dashed=1;verticalAlign=top;fontStyle=0;fontColor=#d6b656;whiteSpace=wrap;html=1;strokeWidth=3;fontSize=14;" vertex="1" parent="1">
          <mxGeometry x="250" y="730" width="900" height="80" as="geometry"/>
        </mxCell>
        
        <mxCell id="comp-title" value="📊 성능 비교" style="text;html=1;strokeColor=none;fillColor=none;align=left;verticalAlign=top;whiteSpace=wrap;rounded=0;fontSize=14;fontStyle=1;fontColor=#d6b656;" vertex="1" parent="1">
          <mxGeometry x="270" y="740" width="100" height="20" as="geometry"/>
        </mxCell>
        
        <mxCell id="before-box" value="" style="rounded=1;whiteSpace=wrap;html=1;fillColor=#ffcccc;strokeColor=#d74894;strokeWidth=2;" vertex="1" parent="1">
          <mxGeometry x="300" y="770" width="150" height="30" as="geometry"/>
        </mxCell>
        
        <mxCell id="before-text" value="이전: 2-3분" style="text;html=1;strokeColor=none;fillColor=none;align=center;verticalAlign=middle;whiteSpace=wrap;rounded=0;fontSize=12;fontStyle=1;fontColor=#000000;" vertex="1" parent="1">
          <mxGeometry x="300" y="770" width="150" height="30" as="geometry"/>
        </mxCell>
        
        <mxCell id="arrow-comp" value="→" style="text;html=1;strokeColor=none;fillColor=none;align=center;verticalAlign=middle;whiteSpace=wrap;rounded=0;fontSize=24;fontStyle=1;fontColor=#d79b00;" vertex="1" parent="1">
          <mxGeometry x="470" y="770" width="50" height="30" as="geometry"/>
        </mxCell>
        
        <mxCell id="after-box" value="" style="rounded=1;whiteSpace=wrap;html=1;fillColor=#d5e8d4;strokeColor=#82b366;strokeWidth=2;" vertex="1" parent="1">
          <mxGeometry x="540" y="770" width="150" height="30" as="geometry"/>
        </mxCell>
        
        <mxCell id="after-text" value="현재: 10초 이내" style="text;html=1;strokeColor=none;fillColor=none;align=center;verticalAlign=middle;whiteSpace=wrap;rounded=0;fontSize=12;fontStyle=1;fontColor=#000000;" vertex="1" parent="1">
          <mxGeometry x="540" y="770" width="150" height="30" as="geometry"/>
        </mxCell>
        
        <mxCell id="improvement" value="🚀 18배 개선!" style="text;html=1;strokeColor=none;fillColor=none;align=center;verticalAlign=middle;whiteSpace=wrap;rounded=0;fontSize=16;fontStyle=1;fontColor=#d79b00;" vertex="1" parent="1">
          <mxGeometry x="720" y="770" width="150" height="30" as="geometry"/>
        </mxCell>
        
      </root>
    </mxGraphModel>
  </diagram>
</mxfile>